<svg xmlns="http://www.w3.org/2000/svg" viewBox="0 0 1200 478">
  <defs>
    <pattern id="panelGrid" width="12" height="12" patternUnits="userSpaceOnUse">
      <path d="M 12 0 L 0 0 0 12" fill="none" stroke="#142e1f" stroke-width="0.4"/>
    </pattern>
  </defs>
  <rect width="1200" height="478" fill="#0a1f14"/>
  <rect width="1200" height="478" fill="url(#panelGrid)"/>
  <rect x="120" y="36" width="960" height="350" rx="8" fill="#0f2e1c" stroke="#7cb342" stroke-width="1.5" opacity="0.9"/>
  <rect x="128" y="44" width="944" height="334" rx="5" fill="none" stroke="#7cb342" stroke-width="0.8" stroke-dasharray="6,4" opacity="0.35"/>
  <text x="175" y="76" font-family="'SF Mono', monospace" font-size="13" fill="#aed581" text-anchor="start" letter-spacing="0" opacity="1.0">Name:</text>
  <text x="360" y="76" font-family="'SF Mono', monospace" font-size="13" fill="#e8f5e9" text-anchor="start" letter-spacing="0" opacity="1.0">Hardeep Dilip Shetty</text>
  <text x="175" y="106" font-family="'SF Mono', monospace" font-size="13" fill="#aed581" text-anchor="start" letter-spacing="0" opacity="1.0">Alias:</text>
  <text x="360" y="106" font-family="'SF Mono', monospace" font-size="13" fill="#e8f5e9" text-anchor="start" letter-spacing="0" opacity="1.0">dashetty</text>
  <text x="175" y="136" font-family="'SF Mono', monospace" font-size="13" fill="#aed581" text-anchor="start" letter-spacing="0" opacity="1.0">Location:</text>
  <text x="360" y="136" font-family="'SF Mono', monospace" font-size="13" fill="#e8f5e9" text-anchor="start" letter-spacing="0" opacity="1.0">Manipal, India</text>
  <text x="175" y="166" font-family="'SF Mono', monospace" font-size="13" fill="#aed581" text-anchor="start" letter-spacing="0" opacity="1.0">Status:</text>
  <text x="360" y="166" font-family="'SF Mono', monospace" font-size="13" fill="#e8f5e9" text-anchor="start" letter-spacing="0" opacity="1.0">Open to opportunities &amp; collaborations</text>
  <text x="175" y="196" font-family="'SF Mono', monospace" font-size="13" fill="#aed581" text-anchor="start" letter-spacing="0" opacity="1.0">Current obsession:</text>
  <text x="360" y="196" font-family="'SF Mono', monospace" font-size="13" fill="#e8f5e9" text-anchor="start" letter-spacing="0" opacity="1.0">AI × System Design × Public Impact</text>
  <text x="175" y="226" font-family="'SF Mono', monospace" font-size="13" fill="#aed581" text-anchor="start" letter-spacing="0" opacity="1.0">Side quest:</text>
  <text x="360" y="226" font-family="'SF Mono', monospace" font-size="13" fill="#e8f5e9" text-anchor="start" letter-spacing="0" opacity="1.0">Design, photography, visual craft</text>
  <line x1="175" y1="266" x2="1025" y2="266" stroke="#7cb342" stroke-width="1" opacity="0.4"/>
  <text x="175" y="300" font-family="'SF Mono', monospace" font-size="13" fill="#aed581" text-anchor="start" letter-spacing="0" opacity="1.0">→  I build things that get used, not just starred</text>
  <text x="175" y="330" font-family="'SF Mono', monospace" font-size="13" fill="#aed581" text-anchor="start" letter-spacing="0" opacity="1.0">→  I finish what I start</text>
  <text x="175" y="360" font-family="'SF Mono', monospace" font-size="13" fill="#aed581" text-anchor="start" letter-spacing="0" opacity="1.0">→  I notice the 2px misalignment you missed</text>
  <text x="175" y="390" font-family="'SF Mono', monospace" font-size="13" fill="#aed581" text-anchor="start" letter-spacing="0" opacity="1.0">→  I'm always learning something new</text>
  <line x1="160" y1="432" x2="1040" y2="432" stroke="#7cb342" stroke-width="1.5" opacity="0.7"/>
  <line x1="160" y1="432" x2="160" y2="442" stroke="#7cb342" stroke-width="1.5" opacity="0.7"/>
  <text x="160" y="460" font-family="'SF Mono', monospace" font-size="10" fill="#7cb342" text-anchor="middle" letter-spacing="0" opacity="0.6">0</text>
  <line x1="248" y1="432" x2="248" y2="442" stroke="#7cb342" stroke-width="1.5" opacity="0.7"/>
  <text x="248" y="460" font-family="'SF Mono', monospace" font-size="10" fill="#7cb342" text-anchor="middle" letter-spacing="0" opacity="0.6">10</text>
  <line x1="336" y1="432" x2="336" y2="442" stroke="#7cb342" stroke-width="1.5" opacity="0.7"/>
  <text x="336" y="460" font-family="'SF Mono', monospace" font-size="10" fill="#7cb342" text-anchor="middle" letter-spacing="0" opacity="0.6">20</text>
  <line x1="424" y1="432" x2="424" y2="442" stroke="#7cb342" stroke-width="1.5" opacity="0.7"/>
  <text x="424" y="460" font-family="'SF Mono', monospace" font-size="10" fill="#7cb342" text-anchor="middle" letter-spacing="0" opacity="0.6">30</text>
  <line x1="512" y1="432" x2="512" y2="442" stroke="#7cb342" stroke-width="1.5" opacity="0.7"/>
  <text x="512" y="460" font-family="'SF Mono', monospace" font-size="10" fill="#7cb342" text-anchor="middle" letter-spacing="0" opacity="0.6">40</text>
  <line x1="600" y1="432" x2="600" y2="442" stroke="#7cb342" stroke-width="1.5" opacity="0.7"/>
  <text x="600" y="460" font-family="'SF Mono', monospace" font-size="10" fill="#7cb342" text-anchor="middle" letter-spacing="0" opacity="0.6">50</text>
  <line x1="688" y1="432" x2="688" y2="442" stroke="#7cb342" stroke-width="1.5" opacity="0.7"/>
  <text x="688" y="460" font-family="'SF Mono', monospace" font-size="10" fill="#7cb342" text-anchor="middle" letter-spacing="0" opacity="0.6">60</text>
  <line x1="776" y1="432" x2="776" y2="442" stroke="#7cb342" stroke-width="1.5" opacity="0.7"/>
  <text x="776" y="460" font-family="'SF Mono', monospace" font-size="10" fill="#7cb342" text-anchor="middle" letter-spacing="0" opacity="0.6">70</text>
  <line x1="864" y1="432" x2="864" y2="442" stroke="#7cb342" stroke-width="1.5" opacity="0.7"/>
  <text x="864" y="460" font-family="'SF Mono', monospace" font-size="10" fill="#7cb342" text-anchor="middle" letter-spacing="0" opacity="0.6">80</text>
  <line x1="952" y1="432" x2="952" y2="442" stroke="#7cb342" stroke-width="1.5" opacity="0.7"/>
  <text x="952" y="460" font-family="'SF Mono', monospace" font-size="10" fill="#7cb342" text-anchor="middle" letter-spacing="0" opacity="0.6">90</text>
  <line x1="182" y1="432" x2="182" y2="437" stroke="#7cb342" stroke-width="0.8" opacity="0.3"/>
  <line x1="204" y1="432" x2="204" y2="437" stroke="#7cb342" stroke-width="0.8" opacity="0.3"/>
  <line x1="226" y1="432" x2="226" y2="437" stroke="#7cb342" stroke-width="0.8" opacity="0.3"/>
  <line x1="270" y1="432" x2="270" y2="437" stroke="#7cb342" stroke-width="0.8" opacity="0.3"/>
  <line x1="292" y1="432" x2="292" y2="437" stroke="#7cb342" stroke-width="0.8" opacity="0.3"/>
  <line x1="314" y1="432" x2="314" y2="437" stroke="#7cb342" stroke-width="0.8" opacity="0.3"/>
  <line x1="358" y1="432" x2="358" y2="437" stroke="#7cb342" stroke-width="0.8" opacity="0.3"/>
  <line x1="380" y1="432" x2="380" y2="437" stroke="#7cb342" stroke-width="0.8" opacity="0.3"/>
  <line x1="402" y1="432" x2="402" y2="437" stroke="#7cb342" stroke-width="0.8" opacity="0.3"/>
  <line x1="446" y1="432" x2="446" y2="437" stroke="#7cb342" stroke-width="0.8" opacity="0.3"/>
  <line x1="468" y1="432" x2="468" y2="437" stroke="#7cb342" stroke-width="0.8" opacity="0.3"/>
  <line x1="490" y1="432" x2="490" y2="437" stroke="#7cb342" stroke-width="0.8" opacity="0.3"/>
  <line x1="534" y1="432" x2="534" y2="437" stroke="#7cb342" stroke-width="0.8" opacity="0.3"/>
  <line x1="556" y1="432" x2="556" y2="437" stroke="#7cb342" stroke-width="0.8" opacity="0.3"/>
  <line x1="578" y1="432" x2="578" y2="437" stroke="#7cb342" stroke-width="0.8" opacity="0.3"/>
  <line x1="622" y1="432" x2="622" y2="437" stroke="#7cb342" stroke-width="0.8" opacity="0.3"/>
  <line x1="644" y1="432" x2="644" y2="437" stroke="#7cb342" stroke-width="0.8" opacity="0.3"/>
  <line x1="666" y1="432" x2="666" y2="437" stroke="#7cb342" stroke-width="0.8" opacity="0.3"/>
  <line x1="710" y1="432" x2="710" y2="437" stroke="#7cb342" stroke-width="0.8" opacity="0.3"/>
  <line x1="732" y1="432" x2="732" y2="437" stroke="#7cb342" stroke-width="0.8" opacity="0.3"/>
  <line x1="754" y1="432" x2="754" y2="437" stroke="#7cb342" stroke-width="0.8" opacity="0.3"/>
  <line x1="798" y1="432" x2="798" y2="437" stroke="#7cb342" stroke-width="0.8" opacity="0.3"/>
  <line x1="820" y1="432" x2="820" y2="437" stroke="#7cb342" stroke-width="0.8" opacity="0.3"/>
  <line x1="842" y1="432" x2="842" y2="437" stroke="#7cb342" stroke-width="0.8" opacity="0.3"/>
  <line x1="886" y1="432" x2="886" y2="437" stroke="#7cb342" stroke-width="0.8" opacity="0.3"/>
  <line x1="908" y1="432" x2="908" y2="437" stroke="#7cb342" stroke-width="0.8" opacity="0.3"/>
  <line x1="930" y1="432" x2="930" y2="437" stroke="#7cb342" stroke-width="0.8" opacity="0.3"/>
  <line x1="974" y1="432" x2="974" y2="437" stroke="#7cb342" stroke-width="0.8" opacity="0.3"/>
  <line x1="996" y1="432" x2="996" y2="437" stroke="#7cb342" stroke-width="0.8" opacity="0.3"/>
  <line x1="1018" y1="432" x2="1018" y2="437" stroke="#7cb342" stroke-width="0.8" opacity="0.3"/>
  <text x="1068" y="460" font-family="'SF Mono', monospace" font-size="10" fill="#7cb342" text-anchor="start" letter-spacing="0" opacity="0.5">cm</text>
</svg>
